<svg width="402" height="131" viewBox="0 0 402 131" fill="none" xmlns="http://www.w3.org/2000/svg">
<path d="M77.7762 76.5883L75.296 75.5423C75.1357 75.4953 74.9888 75.4107 74.8679 75.2954C74.7469 75.1801 74.6552 75.0375 74.6006 74.8796C74.515 73.8265 74.7899 72.7755 75.3802 71.8992C77.0688 69.2687 77.8336 66.151 77.5541 63.0377C77.3981 61.4602 76.7001 59.9857 75.5789 58.8652C75.8453 58.3041 75.9083 57.6679 75.7571 57.0656C75.6059 56.4632 75.25 55.9321 74.7502 55.5634C75.7145 46.8725 75.9061 43.2446 69.5235 39.2509C69.2568 39.0971 68.9402 39.0547 68.6424 39.133C68.3446 39.2113 68.0898 39.4039 67.9332 39.669C67.7766 39.9341 67.731 40.2503 67.8062 40.5489C67.8814 40.8474 68.0714 41.1042 68.3349 41.2635C71.0908 42.8928 72.5857 44.868 72.7785 47.1436C72.9545 49.6263 72.873 52.1204 72.5354 54.5863C71.4872 54.16 70.3331 54.067 69.2301 54.3198C69.3129 51.8071 69.1485 49.2923 68.7393 46.8117C68.7001 46.5929 68.5997 46.3896 68.4498 46.2255C68.2999 46.0614 68.1065 45.9431 67.8922 45.8842C67.6778 45.8254 67.4512 45.8285 67.2385 45.8932C67.0258 45.9578 66.8358 46.0813 66.6904 46.2495C65.6429 47.0602 64.3676 47.5221 63.0439 47.5702C63.0386 47.3961 62.9952 47.2253 62.917 47.0697C62.8387 46.9141 62.7273 46.7776 62.5907 46.6696C62.4541 46.5615 62.2955 46.4847 62.126 46.4445C61.9566 46.4042 61.7804 46.4015 61.6098 46.4365C59.9805 46.8888 61.2054 48.6607 60.6818 49.7792C59.8122 51.9823 56.8459 51.3921 55.309 49.8844C55.1954 49.7811 55.0626 49.7012 54.9181 49.6492C54.7737 49.5972 54.6204 49.5742 54.467 49.5815C54.3137 49.5888 54.1632 49.6262 54.0244 49.6916C53.8855 49.757 53.7608 49.8491 53.6575 49.9627C53.5542 50.0762 53.4743 50.2091 53.4223 50.3535C53.3704 50.498 53.3474 50.6513 53.3546 50.8046C53.3619 50.958 53.3993 51.1084 53.4647 51.2473C53.5301 51.3862 53.6222 51.5108 53.7358 51.6141C54.6122 52.5177 55.739 53.1382 56.9711 53.3956C58.2032 53.6531 59.4842 53.5358 60.6491 53.0587C61.1737 54.0849 61.463 55.215 61.4959 56.367C61.5289 57.519 61.3047 58.6639 60.8396 59.7184C54.3342 64.3023 49.1344 64.6973 42.0715 59.7184C41.6075 58.6672 41.383 57.5261 41.4143 56.3775C41.4457 55.2289 41.732 54.1017 42.2527 53.0774C43.4214 53.5441 44.7021 53.6544 45.9334 53.3944C47.1647 53.1344 48.2915 52.5158 49.1718 51.6165C49.3929 51.4064 49.5231 51.1182 49.5347 50.8135C49.5462 50.5087 49.4382 50.2115 49.2337 49.9853C49.0291 49.759 48.7442 49.6217 48.4398 49.6027C48.1354 49.5836 47.8357 49.6843 47.6045 49.8832C45.2962 52.119 41.2885 51.6071 42.1884 47.8285C42.2215 47.6688 42.2209 47.504 42.1866 47.3446C42.1524 47.1852 42.0852 47.0347 41.9894 46.9028C41.8936 46.7708 41.7713 46.6603 41.6304 46.5784C41.4894 46.4964 41.3329 46.4448 41.1708 46.4268C41.0088 46.4088 40.8447 46.4249 40.6892 46.474C40.5338 46.523 40.3902 46.604 40.2678 46.7118C40.1455 46.8195 40.0469 46.9516 39.9785 47.0997C39.9102 47.2477 39.8734 47.4083 39.8707 47.5714C38.5457 47.5234 37.2692 47.0611 36.2207 46.2495C36.0752 46.0817 35.8853 45.9585 35.6728 45.894C35.4603 45.8296 35.2339 45.8266 35.0197 45.8854C34.8056 45.9442 34.6124 46.0624 34.4626 46.2263C34.3128 46.3902 34.2124 46.5931 34.173 46.8117C33.7633 49.2922 33.5985 51.807 33.681 54.3198C32.5784 54.0672 31.4247 54.1603 30.3769 54.5863C30.0411 52.1164 29.9601 49.6184 30.1349 47.1319C30.641 41.0777 40.281 38.7051 43.6692 38.0576C43.9404 39.0686 45.004 42.2628 46.7314 41.0765C46.8497 40.9787 46.9475 40.8585 47.0193 40.7229C47.0911 40.5872 47.1355 40.4387 47.15 40.2859C47.1644 40.1331 47.1486 39.979 47.1034 39.8323C47.0583 39.6856 46.9847 39.5492 46.8868 39.4309C46.2871 38.6855 45.9175 37.7814 45.8233 36.8293C45.4329 31.301 48.1257 28.8618 51.4661 28.78C54.5855 28.8314 57.5752 31.3115 57.0843 36.8678C56.7372 39.5151 54.8567 41.1128 51.4567 41.6013C51.0826 41.5519 50.7118 41.4797 50.3464 41.3851C50.0502 41.3131 49.7376 41.3596 49.4753 41.5147C49.2129 41.6699 49.0215 41.9214 48.942 42.2156C48.8624 42.5098 48.9009 42.8235 49.0493 43.0898C49.1977 43.356 49.4442 43.5537 49.7363 43.6408C50.3461 43.8154 50.9748 43.9158 51.6087 43.94C56.895 43.2411 58.6715 40.3648 59.2407 38.0646C60.9374 38.3838 62.6079 38.8292 64.2383 39.397C64.5308 39.4999 64.8522 39.4825 65.1317 39.3484C65.4113 39.2144 65.6262 38.9748 65.7291 38.6823C65.832 38.3899 65.8145 38.0685 65.6805 37.7889C65.5465 37.5094 65.3069 37.2945 65.0144 37.1916C63.2086 36.5636 61.3573 36.0752 59.4768 35.7306C59.4275 34.6932 59.295 33.6613 59.0806 32.6451C61.6355 28.6818 60.5813 24.3983 55.683 22.4827C55.8536 21.8373 55.874 21.1614 55.7426 20.507C55.6112 19.8525 55.3315 19.2369 54.925 18.7074C54.5185 18.1779 53.996 17.7487 53.3977 17.4527C52.7993 17.1567 52.1411 17.0019 51.4736 17C50.8061 16.9982 50.147 17.1494 49.5471 17.4421C48.9471 17.7347 48.4223 18.1611 48.0128 18.6883C47.6034 19.2155 47.3203 19.8296 47.1853 20.4833C47.0503 21.137 47.0669 21.813 47.234 22.4593C42.1814 24.4824 41.4357 28.4434 43.7697 32.8987C43.5975 33.83 43.4873 34.7718 43.4402 35.7178C39.8111 36.3758 28.4648 39.0593 27.8067 46.9262C27.5921 49.8093 27.7109 52.7076 28.1609 55.5634C27.6613 55.9323 27.3056 56.4634 27.1546 57.0658C27.0037 57.6682 27.0669 58.3043 27.3334 58.8652C26.2119 59.9865 25.5135 61.4618 25.357 63.04C25.0829 66.1559 25.8495 69.2748 27.5368 71.9086C28.1355 72.7792 28.4104 73.832 28.314 74.8843C28.2595 75.0418 28.168 75.184 28.0472 75.2989C27.9264 75.4138 27.7798 75.4981 27.6197 75.5446L25.1373 76.586C22.2002 77.6741 22.1569 82.715 25.8409 82.4263C28.434 82.1684 30.969 81.496 33.349 80.4347C34.838 79.8316 36.4533 80.2711 37.4432 78.7237C37.8143 78.1677 38.0232 77.5194 38.0466 76.8514C38.0699 76.1833 37.9067 75.522 37.5753 74.9415C37.1917 73.7852 37.0099 72.5714 37.0377 71.3534C39.845 73.3263 46.7302 77.1669 51.3118 74.5909C56.0184 77.0196 62.934 73.525 65.8746 71.3546C65.9009 72.8976 65.6043 74.4291 65.0039 75.8508C64.8586 76.3282 64.8247 76.8325 64.9047 77.3251C64.9848 77.8176 65.1766 78.2852 65.4655 78.6921C65.7544 79.0989 66.1327 79.4341 66.5714 79.672C67.01 79.9099 67.4973 80.044 67.9959 80.0642C70.5088 80.5002 73.0146 82.0465 75.5859 82.2148C76.6179 82.3527 78.1151 82.7384 78.9917 81.8992C80.8138 80.4032 79.8005 77.355 77.7762 76.5883ZM49.4266 21.3723C49.4287 21.0863 49.4913 20.804 49.6102 20.5439C49.7291 20.2838 49.9017 20.0519 50.1167 19.8632C50.3316 19.6745 50.5841 19.5335 50.8574 19.4493C51.1307 19.3651 51.4187 19.3397 51.7026 19.3747C51.9864 19.4097 52.2597 19.5044 52.5043 19.6525C52.749 19.8005 52.9596 19.9987 53.1222 20.234C53.2849 20.4692 53.3959 20.7362 53.4481 21.0174C53.5003 21.2986 53.4924 21.5876 53.4249 21.8655C52.1249 21.651 50.7988 21.6482 49.4979 21.8574C49.4547 21.6991 49.4308 21.5363 49.4266 21.3723ZM51.4626 24.0383C55.6608 24.1318 59.1238 26.467 57.8475 29.7582C57.1045 28.7533 56.141 27.9319 55.0312 27.3571C53.9213 26.7823 52.6946 26.4694 51.445 26.4424C50.1905 26.4569 48.9571 26.7677 47.8455 27.3494C46.7339 27.9311 45.7754 28.7673 45.0484 29.7898C43.8258 26.4868 47.2316 24.1271 51.4626 24.0383ZM71.5244 56.7053C72.1556 56.9928 74.4405 57.4545 73.1069 58.1581L70.4141 59.2181C70.0491 59.3722 69.6439 59.4036 69.2595 59.3077C68.8751 59.2118 68.5322 58.9938 68.2823 58.6863C67.415 56.9753 70.2458 56.1162 71.5244 56.7053ZM66.6285 55.8486C66.2387 56.2937 65.9685 56.8306 65.8431 57.4089C65.1305 57.6236 64.4305 57.878 63.7463 58.1709C64.0502 55.8513 63.5959 53.4955 62.4513 51.4552C62.751 50.9893 62.9537 50.4678 63.0474 49.9218C64.2979 49.8164 65.5245 49.5176 66.6834 49.0358C66.9335 51.239 67.1229 54.3233 66.6285 55.8486ZM36.2289 49.0347C37.3909 49.5182 38.6212 49.8179 39.8754 49.9229C39.9543 50.4714 40.1539 50.9955 40.4598 51.4575C39.3163 53.497 38.8625 55.8514 39.166 58.1697C38.4823 57.8764 37.7826 57.6215 37.0704 57.4065C36.9445 56.8282 36.6739 56.2913 36.2838 55.8462C35.7906 54.3222 35.9799 51.2378 36.23 49.0358L36.2289 49.0347ZM32.4619 56.5148C33.5968 56.468 35.3839 57.4206 34.6323 58.6863C34.3823 58.9932 34.0396 59.2109 33.6555 59.3067C33.2714 59.4026 32.8666 59.3715 32.5017 59.2181L29.8077 58.1581C29.2689 57.9524 29.2876 57.4743 29.8275 57.2803C30.6628 56.8958 31.5507 56.6378 32.4619 56.5148ZM33.4905 63.3941C33.2489 63.2099 32.945 63.127 32.6433 63.1629C32.3417 63.1989 32.0658 63.3509 31.8743 63.5868C31.6828 63.8227 31.5907 64.1239 31.6175 64.4265C31.6443 64.7292 31.7879 65.0095 32.0178 65.2081C33.1219 66.1879 33.9 67.4819 34.2478 68.9165C35.0426 71.489 34.4372 73.6325 35.4224 75.8508C35.7859 76.5533 35.953 77.6122 34.8486 77.7279C32.2446 77.9499 29.4196 79.7942 27.012 79.9018L25.4996 80.1122C25.4562 80.1137 25.4138 80.0989 25.3808 80.0708C25.3477 80.0427 25.3263 80.0033 25.3208 79.9602C25.2943 79.7068 25.35 79.4517 25.4796 79.2324C25.6092 79.0131 25.806 78.8413 26.0407 78.7424L28.5197 77.7022C32.0529 76.3172 30.4072 71.9168 29.526 70.6802C27.3346 66.8245 26.721 62.7501 29.131 60.4044L31.6438 61.3932C32.5469 61.766 33.5534 61.8043 34.4822 61.5011C35.4111 61.198 36.2012 60.5732 36.7104 59.7394C39.8415 60.7539 40.6608 61.7356 42.9084 63.0867C42.9247 63.1125 42.9294 63.1417 42.9481 63.1651C44.363 65.1354 45.1474 67.4883 45.198 69.9135V72.6882C41.9156 71.7497 38.8867 70.0839 36.3364 67.8144C35.8346 66.097 34.8461 64.5618 33.4905 63.3941ZM54.942 73.1381C53.3116 73.2959 51.909 71.5439 50.2798 72.4941C49.4663 73.0161 48.4924 73.2285 47.5355 73.0925V69.9135C47.524 68.1283 47.1618 66.3627 46.4696 64.7172C48.0367 65.2762 49.6815 65.5869 51.3445 65.6382C53.0855 65.6173 54.8105 65.3036 56.4473 64.7102C55.7527 66.3576 55.3889 68.1256 55.3768 69.9135V73.0925C55.2318 73.1066 55.0892 73.1288 54.942 73.1381ZM77.5903 79.9684C77.5853 80.0115 77.5635 80.0508 77.5295 80.0778C77.4955 80.1047 77.4522 80.1171 77.4092 80.1122L75.912 79.9018C73.5207 79.8001 70.6619 77.9406 68.059 77.7279C67.9219 77.7233 67.7876 77.6874 67.6665 77.6229C67.5454 77.5584 67.4407 77.467 67.3603 77.3558C67.28 77.2445 67.2262 77.1164 67.2031 76.9811C67.1799 76.8458 67.1881 76.7071 67.2269 76.5755C68.9415 73.0142 67.2152 68.698 70.7636 65.3354C70.9963 65.1312 71.1384 64.8429 71.1588 64.534C71.1792 64.225 71.0761 63.9205 70.8723 63.6875C69.0092 61.9939 67.02 66.5077 66.5911 67.8027C64.0377 70.0787 61.0033 71.7487 57.7143 72.6882V69.9135C57.7648 67.4883 58.5493 65.1354 59.9642 63.1651C61.8351 61.6778 63.9457 60.5202 66.2054 59.7417C66.7149 60.5746 67.5047 61.1985 68.433 61.5012C69.3613 61.8039 70.3671 61.7656 71.2696 61.3932L73.7825 60.4044C76.1948 62.7723 75.5789 66.8209 73.3968 70.665C72.4945 71.9191 70.8746 76.3242 74.3973 77.6998L76.8739 78.7435C77.1094 78.8428 77.3064 79.0157 77.4356 79.2363C77.5647 79.4568 77.619 79.7144 77.5903 79.9684Z" fill="#E00000"/>
<circle cx="50.5" cy="50.5" r="48.5" stroke="black" stroke-width="4"/>
<path d="M128.878 56.9297C128.878 56.3984 128.8 55.9219 128.644 55.5C128.488 55.0625 128.198 54.6562 127.777 54.2812C127.355 53.9062 126.745 53.5312 125.948 53.1562C125.167 52.7656 124.136 52.3594 122.855 51.9375C121.355 51.4375 119.909 50.875 118.519 50.25C117.128 49.6094 115.886 48.8672 114.792 48.0234C113.698 47.1641 112.831 46.1641 112.191 45.0234C111.55 43.8672 111.23 42.5234 111.23 40.9922C111.23 39.5234 111.558 38.2031 112.214 37.0312C112.87 35.8438 113.784 34.8359 114.956 34.0078C116.144 33.1641 117.534 32.5234 119.128 32.0859C120.722 31.6328 122.464 31.4062 124.355 31.4062C126.855 31.4062 129.058 31.8438 130.964 32.7188C132.886 33.5781 134.386 34.8047 135.464 36.3984C136.558 37.9766 137.105 39.8438 137.105 42H128.925C128.925 41.1406 128.745 40.3828 128.386 39.7266C128.042 39.0703 127.519 38.5547 126.816 38.1797C126.113 37.8047 125.23 37.6172 124.167 37.6172C123.136 37.6172 122.269 37.7734 121.566 38.0859C120.863 38.3984 120.331 38.8203 119.972 39.3516C119.613 39.8672 119.433 40.4375 119.433 41.0625C119.433 41.5781 119.573 42.0469 119.855 42.4688C120.152 42.875 120.566 43.2578 121.097 43.6172C121.644 43.9766 122.3 44.3203 123.066 44.6484C123.847 44.9766 124.722 45.2969 125.691 45.6094C127.503 46.1875 129.113 46.8359 130.519 47.5547C131.941 48.2578 133.136 49.0625 134.105 49.9688C135.089 50.8594 135.831 51.875 136.331 53.0156C136.847 54.1562 137.105 55.4453 137.105 56.8828C137.105 58.4141 136.808 59.7734 136.214 60.9609C135.62 62.1484 134.769 63.1562 133.659 63.9844C132.55 64.7969 131.222 65.4141 129.675 65.8359C128.128 66.2578 126.402 66.4688 124.495 66.4688C122.745 66.4688 121.019 66.25 119.316 65.8125C117.628 65.3594 116.097 64.6719 114.722 63.75C113.347 62.8125 112.245 61.6172 111.417 60.1641C110.605 58.6953 110.198 56.9531 110.198 54.9375H118.448C118.448 55.9375 118.581 56.7812 118.847 57.4688C119.113 58.1562 119.503 58.7109 120.019 59.1328C120.534 59.5391 121.167 59.8359 121.917 60.0234C122.667 60.1953 123.527 60.2812 124.495 60.2812C125.542 60.2812 126.386 60.1328 127.027 59.8359C127.667 59.5234 128.136 59.1172 128.433 58.6172C128.73 58.1016 128.878 57.5391 128.878 56.9297ZM176.663 31.875H184.889V54.1641C184.889 56.8203 184.334 59.0703 183.225 60.9141C182.116 62.7422 180.561 64.125 178.561 65.0625C176.561 66 174.209 66.4688 171.506 66.4688C168.834 66.4688 166.483 66 164.452 65.0625C162.436 64.125 160.858 62.7422 159.717 60.9141C158.592 59.0703 158.03 56.8203 158.03 54.1641V31.875H166.28V54.1641C166.28 55.5703 166.483 56.7188 166.889 57.6094C167.295 58.4844 167.889 59.125 168.67 59.5312C169.452 59.9375 170.397 60.1406 171.506 60.1406C172.631 60.1406 173.577 59.9375 174.342 59.5312C175.108 59.125 175.686 58.4844 176.077 57.6094C176.467 56.7188 176.663 55.5703 176.663 54.1641V31.875ZM210.947 31.875H217.65L225.267 55.6172L232.884 31.875H239.588L227.986 66H222.548L210.947 31.875ZM206.869 31.875H213.806L215.095 58.0312V66H206.869V31.875ZM236.728 31.875H243.689V66H235.439V58.0312L236.728 31.875ZM294.637 48.2578V49.6406C294.637 52.25 294.27 54.5938 293.536 56.6719C292.817 58.7344 291.794 60.5 290.466 61.9688C289.137 63.4219 287.567 64.5391 285.755 65.3203C283.942 66.0859 281.942 66.4688 279.755 66.4688C277.552 66.4688 275.536 66.0859 273.708 65.3203C271.895 64.5391 270.317 63.4219 268.973 61.9688C267.645 60.5 266.614 58.7344 265.88 56.6719C265.161 54.5938 264.802 52.25 264.802 49.6406V48.2578C264.802 45.6484 265.161 43.3047 265.88 41.2266C266.614 39.1484 267.637 37.3828 268.95 35.9297C270.278 34.4609 271.848 33.3438 273.661 32.5781C275.489 31.7969 277.505 31.4062 279.708 31.4062C281.895 31.4062 283.895 31.7969 285.708 32.5781C287.536 33.3438 289.114 34.4609 290.442 35.9297C291.77 37.3828 292.802 39.1484 293.536 41.2266C294.27 43.3047 294.637 45.6484 294.637 48.2578ZM286.294 49.6406V48.2109C286.294 46.5234 286.145 45.0391 285.848 43.7578C285.567 42.4609 285.145 41.375 284.583 40.5C284.02 39.625 283.325 38.9688 282.497 38.5312C281.684 38.0781 280.755 37.8516 279.708 37.8516C278.614 37.8516 277.661 38.0781 276.848 38.5312C276.036 38.9688 275.356 39.625 274.809 40.5C274.262 41.375 273.848 42.4609 273.567 43.7578C273.302 45.0391 273.169 46.5234 273.169 48.2109V49.6406C273.169 51.3125 273.302 52.7969 273.567 54.0938C273.848 55.375 274.262 56.4609 274.809 57.3516C275.372 58.2422 276.059 58.9141 276.872 59.3672C277.7 59.8203 278.661 60.0469 279.755 60.0469C280.802 60.0469 281.731 59.8203 282.544 59.3672C283.356 58.9141 284.036 58.2422 284.583 57.3516C285.145 56.4609 285.567 55.375 285.848 54.0938C286.145 52.7969 286.294 51.3125 286.294 49.6406Z" fill="black"/>
<path d="M189.744 90.2207C189.744 89.9993 189.712 89.8008 189.646 89.625C189.581 89.4427 189.461 89.2734 189.285 89.1172C189.109 88.9609 188.855 88.8047 188.523 88.6484C188.198 88.4857 187.768 88.3164 187.234 88.1406C186.609 87.9323 186.007 87.6979 185.428 87.4375C184.848 87.1706 184.331 86.8613 183.875 86.5098C183.419 86.1517 183.058 85.735 182.791 85.2598C182.524 84.778 182.391 84.2181 182.391 83.5801C182.391 82.9681 182.527 82.418 182.801 81.9297C183.074 81.4349 183.455 81.015 183.943 80.6699C184.438 80.3184 185.018 80.0514 185.682 79.8691C186.346 79.6803 187.072 79.5859 187.859 79.5859C188.901 79.5859 189.819 79.7682 190.613 80.1328C191.414 80.4909 192.039 81.002 192.488 81.666C192.944 82.3236 193.172 83.1016 193.172 84H189.764C189.764 83.6419 189.689 83.3262 189.539 83.0527C189.396 82.7793 189.178 82.5645 188.885 82.4082C188.592 82.252 188.224 82.1738 187.781 82.1738C187.352 82.1738 186.99 82.2389 186.697 82.3691C186.404 82.4993 186.183 82.6751 186.033 82.8965C185.883 83.1113 185.809 83.349 185.809 83.6094C185.809 83.8242 185.867 84.0195 185.984 84.1953C186.108 84.3646 186.281 84.5241 186.502 84.6738C186.73 84.8236 187.003 84.9668 187.322 85.1035C187.648 85.2402 188.012 85.3737 188.416 85.5039C189.171 85.7448 189.842 86.015 190.428 86.3145C191.02 86.6074 191.518 86.9427 191.922 87.3203C192.332 87.6914 192.641 88.1146 192.85 88.5898C193.064 89.0651 193.172 89.6022 193.172 90.2012C193.172 90.8392 193.048 91.4056 192.801 91.9004C192.553 92.3952 192.199 92.8151 191.736 93.1602C191.274 93.4987 190.721 93.7559 190.076 93.9316C189.432 94.1074 188.712 94.1953 187.918 94.1953C187.189 94.1953 186.469 94.1042 185.76 93.9219C185.057 93.7331 184.419 93.4466 183.846 93.0625C183.273 92.6719 182.814 92.1738 182.469 91.5684C182.13 90.9564 181.961 90.2305 181.961 89.3906H185.398C185.398 89.8073 185.454 90.1589 185.564 90.4453C185.675 90.7318 185.838 90.9629 186.053 91.1387C186.268 91.3079 186.531 91.4316 186.844 91.5098C187.156 91.5814 187.514 91.6172 187.918 91.6172C188.354 91.6172 188.706 91.5553 188.973 91.4316C189.24 91.3014 189.435 91.1322 189.559 90.9238C189.682 90.709 189.744 90.4746 189.744 90.2207ZM209.654 79.7812H213.082V89.0684C213.082 90.1751 212.851 91.1126 212.389 91.8809C211.926 92.6426 211.279 93.2188 210.445 93.6094C209.612 94 208.632 94.1953 207.506 94.1953C206.393 94.1953 205.413 94 204.566 93.6094C203.727 93.2188 203.069 92.6426 202.594 91.8809C202.125 91.1126 201.891 90.1751 201.891 89.0684V79.7812H205.328V89.0684C205.328 89.6543 205.413 90.1328 205.582 90.5039C205.751 90.8685 205.999 91.1354 206.324 91.3047C206.65 91.474 207.044 91.5586 207.506 91.5586C207.975 91.5586 208.368 91.474 208.688 91.3047C209.007 91.1354 209.247 90.8685 209.41 90.5039C209.573 90.1328 209.654 89.6543 209.654 89.0684V79.7812ZM229.564 90.2207C229.564 89.9993 229.532 89.8008 229.467 89.625C229.402 89.4427 229.281 89.2734 229.105 89.1172C228.93 88.9609 228.676 88.8047 228.344 88.6484C228.018 88.4857 227.589 88.3164 227.055 88.1406C226.43 87.9323 225.827 87.6979 225.248 87.4375C224.669 87.1706 224.151 86.8613 223.695 86.5098C223.24 86.1517 222.878 85.735 222.611 85.2598C222.344 84.778 222.211 84.2181 222.211 83.5801C222.211 82.9681 222.348 82.418 222.621 81.9297C222.895 81.4349 223.275 81.015 223.764 80.6699C224.258 80.3184 224.838 80.0514 225.502 79.8691C226.166 79.6803 226.892 79.5859 227.68 79.5859C228.721 79.5859 229.639 79.7682 230.434 80.1328C231.234 80.4909 231.859 81.002 232.309 81.666C232.764 82.3236 232.992 83.1016 232.992 84H229.584C229.584 83.6419 229.509 83.3262 229.359 83.0527C229.216 82.7793 228.998 82.5645 228.705 82.4082C228.412 82.252 228.044 82.1738 227.602 82.1738C227.172 82.1738 226.811 82.2389 226.518 82.3691C226.225 82.4993 226.003 82.6751 225.854 82.8965C225.704 83.1113 225.629 83.349 225.629 83.6094C225.629 83.8242 225.688 84.0195 225.805 84.1953C225.928 84.3646 226.101 84.5241 226.322 84.6738C226.55 84.8236 226.824 84.9668 227.143 85.1035C227.468 85.2402 227.833 85.3737 228.236 85.5039C228.992 85.7448 229.662 86.015 230.248 86.3145C230.84 86.6074 231.339 86.9427 231.742 87.3203C232.152 87.6914 232.462 88.1146 232.67 88.5898C232.885 89.0651 232.992 89.6022 232.992 90.2012C232.992 90.8392 232.868 91.4056 232.621 91.9004C232.374 92.3952 232.019 92.8151 231.557 93.1602C231.094 93.4987 230.541 93.7559 229.896 93.9316C229.252 94.1074 228.533 94.1953 227.738 94.1953C227.009 94.1953 226.29 94.1042 225.58 93.9219C224.877 93.7331 224.239 93.4466 223.666 93.0625C223.093 92.6719 222.634 92.1738 222.289 91.5684C221.951 90.9564 221.781 90.2305 221.781 89.3906H225.219C225.219 89.8073 225.274 90.1589 225.385 90.4453C225.495 90.7318 225.658 90.9629 225.873 91.1387C226.088 91.3079 226.352 91.4316 226.664 91.5098C226.977 91.5814 227.335 91.6172 227.738 91.6172C228.174 91.6172 228.526 91.5553 228.793 91.4316C229.06 91.3014 229.255 91.1322 229.379 90.9238C229.503 90.709 229.564 90.4746 229.564 90.2207ZM251.34 85.4258V88.0625H244.045V85.4258H251.34ZM245.188 79.7812V94H241.76V79.7812H245.188ZM253.645 79.7812V94H250.227V79.7812H253.645ZM266.465 79.7812V94H263.047V79.7812H266.465ZM289.781 86.5293L292.799 84.6445C293.202 84.3841 293.45 84.14 293.541 83.9121C293.639 83.6777 293.688 83.4499 293.688 83.2285C293.688 82.9616 293.59 82.7109 293.395 82.4766C293.206 82.2357 292.939 82.1152 292.594 82.1152C292.34 82.1152 292.125 82.1738 291.949 82.291C291.78 82.4017 291.65 82.5514 291.559 82.7402C291.474 82.929 291.432 83.1406 291.432 83.375C291.432 83.668 291.513 83.9642 291.676 84.2637C291.839 84.5632 292.053 84.8789 292.32 85.2109C292.594 85.543 292.896 85.9076 293.229 86.3047L299.918 94H296.246L290.797 87.8086C290.348 87.2357 289.957 86.7083 289.625 86.2266C289.299 85.7448 289.046 85.276 288.863 84.8203C288.681 84.3646 288.59 83.8958 288.59 83.4141C288.59 82.6654 288.753 82.0046 289.078 81.4316C289.41 80.8522 289.876 80.3997 290.475 80.0742C291.08 79.7422 291.79 79.5762 292.604 79.5762C293.359 79.5762 294.013 79.7324 294.566 80.0449C295.126 80.3574 295.559 80.7741 295.865 81.2949C296.171 81.8092 296.324 82.3757 296.324 82.9941C296.324 83.4238 296.243 83.8307 296.08 84.2148C295.917 84.599 295.693 84.9505 295.406 85.2695C295.126 85.5885 294.804 85.8783 294.439 86.1387L291.178 88.4141C291.048 88.5768 290.94 88.7428 290.855 88.9121C290.777 89.0749 290.719 89.2409 290.68 89.4102C290.647 89.5794 290.631 89.7617 290.631 89.957C290.631 90.2956 290.702 90.5951 290.846 90.8555C290.989 91.1094 291.178 91.3079 291.412 91.4512C291.653 91.5944 291.913 91.666 292.193 91.666C292.721 91.666 293.229 91.5521 293.717 91.3242C294.212 91.0898 294.654 90.7611 295.045 90.3379C295.436 89.9147 295.745 89.4102 295.973 88.8242C296.201 88.2383 296.314 87.5938 296.314 86.8906H299.068C299.068 87.6589 298.99 88.3913 298.834 89.0879C298.684 89.778 298.434 90.416 298.082 91.002C297.737 91.5879 297.271 92.1022 296.686 92.5449C296.653 92.5645 296.591 92.6035 296.5 92.6621C296.415 92.7142 296.354 92.75 296.314 92.7695C295.631 93.2578 294.957 93.6191 294.293 93.8535C293.629 94.0879 292.854 94.2051 291.969 94.2051C291.012 94.2051 290.185 94.0326 289.488 93.6875C288.798 93.3424 288.264 92.8672 287.887 92.2617C287.509 91.6562 287.32 90.9629 287.32 90.1816C287.32 89.6283 287.424 89.1465 287.633 88.7363C287.841 88.3197 288.131 87.9355 288.502 87.584C288.873 87.2324 289.299 86.8809 289.781 86.5293ZM331.965 86.4023V92.2422C331.724 92.5091 331.353 92.7956 330.852 93.1016C330.357 93.401 329.732 93.6582 328.977 93.873C328.221 94.0879 327.333 94.1953 326.311 94.1953C325.367 94.1953 324.51 94.0456 323.742 93.7461C322.974 93.4401 322.313 92.9941 321.76 92.4082C321.213 91.8158 320.79 91.0931 320.49 90.2402C320.197 89.3809 320.051 88.3978 320.051 87.291V86.5C320.051 85.3932 320.201 84.4102 320.5 83.5508C320.799 82.6914 321.219 81.9688 321.76 81.3828C322.307 80.7904 322.948 80.3411 323.684 80.0352C324.426 79.7292 325.24 79.5762 326.125 79.5762C327.434 79.5762 328.498 79.7845 329.318 80.2012C330.139 80.6113 330.76 81.181 331.184 81.9102C331.607 82.6328 331.864 83.4694 331.955 84.4199H328.664C328.599 83.9512 328.475 83.554 328.293 83.2285C328.117 82.8965 327.863 82.6458 327.531 82.4766C327.199 82.3008 326.77 82.2129 326.242 82.2129C325.832 82.2129 325.458 82.3008 325.119 82.4766C324.787 82.6523 324.504 82.9193 324.27 83.2773C324.035 83.6289 323.853 84.0716 323.723 84.6055C323.599 85.1393 323.537 85.7643 323.537 86.4805V87.291C323.537 88.0007 323.596 88.6224 323.713 89.1562C323.837 89.6901 324.019 90.1361 324.26 90.4941C324.507 90.8457 324.82 91.1126 325.197 91.2949C325.581 91.4707 326.034 91.5586 326.555 91.5586C326.919 91.5586 327.232 91.5293 327.492 91.4707C327.753 91.4056 327.967 91.3275 328.137 91.2363C328.312 91.1387 328.446 91.0475 328.537 90.9629V88.7559H326.154V86.4023H331.965ZM340.967 79.7812H346.562C347.656 79.7812 348.607 79.944 349.414 80.2695C350.221 80.5951 350.843 81.0768 351.279 81.7148C351.722 82.3529 351.943 83.1406 351.943 84.0781C351.943 84.8919 351.816 85.5723 351.562 86.1191C351.309 86.666 350.954 87.1185 350.498 87.4766C350.049 87.8281 349.525 88.1178 348.926 88.3457L347.803 88.9805H343.105L343.086 86.334H346.562C346.999 86.334 347.36 86.2559 347.646 86.0996C347.933 85.9434 348.148 85.722 348.291 85.4355C348.441 85.1426 348.516 84.7943 348.516 84.3906C348.516 83.9805 348.441 83.6289 348.291 83.3359C348.141 83.043 347.92 82.8184 347.627 82.6621C347.34 82.5059 346.986 82.4277 346.562 82.4277H344.395V94H340.967V79.7812ZM348.75 94L345.605 87.7109L349.238 87.6914L352.422 93.8535V94H348.75ZM364.656 79.7812V94H361.238V79.7812H364.656ZM383.463 91.3633V94H376.275V91.3633H383.463ZM377.496 79.7812V94H374.068V79.7812H377.496ZM401.303 91.3633V94H394.115V91.3633H401.303ZM395.336 79.7812V94H391.908V79.7812H395.336Z" fill="#E00000"/>
<path d="M197.09 101.781H202.686C203.779 101.781 204.73 101.944 205.537 102.27C206.344 102.595 206.966 103.077 207.402 103.715C207.845 104.353 208.066 105.141 208.066 106.078C208.066 106.892 207.939 107.572 207.686 108.119C207.432 108.666 207.077 109.118 206.621 109.477C206.172 109.828 205.648 110.118 205.049 110.346L203.926 110.98H199.229L199.209 108.334H202.686C203.122 108.334 203.483 108.256 203.77 108.1C204.056 107.943 204.271 107.722 204.414 107.436C204.564 107.143 204.639 106.794 204.639 106.391C204.639 105.98 204.564 105.629 204.414 105.336C204.264 105.043 204.043 104.818 203.75 104.662C203.464 104.506 203.109 104.428 202.686 104.428H200.518V116H197.09V101.781ZM204.873 116L201.729 109.711L205.361 109.691L208.545 115.854V116H204.873ZM226.922 113.363V116H219.344V113.363H226.922ZM220.564 101.781V116H217.137V101.781H220.564ZM225.945 107.426V109.975H219.344V107.426H225.945ZM226.951 101.781V104.428H219.344V101.781H226.951ZM242.652 112.221C242.652 111.999 242.62 111.801 242.555 111.625C242.49 111.443 242.369 111.273 242.193 111.117C242.018 110.961 241.764 110.805 241.432 110.648C241.106 110.486 240.676 110.316 240.143 110.141C239.518 109.932 238.915 109.698 238.336 109.438C237.757 109.171 237.239 108.861 236.783 108.51C236.327 108.152 235.966 107.735 235.699 107.26C235.432 106.778 235.299 106.218 235.299 105.58C235.299 104.968 235.436 104.418 235.709 103.93C235.982 103.435 236.363 103.015 236.852 102.67C237.346 102.318 237.926 102.051 238.59 101.869C239.254 101.68 239.98 101.586 240.768 101.586C241.809 101.586 242.727 101.768 243.521 102.133C244.322 102.491 244.947 103.002 245.396 103.666C245.852 104.324 246.08 105.102 246.08 106H242.672C242.672 105.642 242.597 105.326 242.447 105.053C242.304 104.779 242.086 104.564 241.793 104.408C241.5 104.252 241.132 104.174 240.689 104.174C240.26 104.174 239.898 104.239 239.605 104.369C239.312 104.499 239.091 104.675 238.941 104.896C238.792 105.111 238.717 105.349 238.717 105.609C238.717 105.824 238.775 106.02 238.893 106.195C239.016 106.365 239.189 106.524 239.41 106.674C239.638 106.824 239.911 106.967 240.23 107.104C240.556 107.24 240.921 107.374 241.324 107.504C242.079 107.745 242.75 108.015 243.336 108.314C243.928 108.607 244.426 108.943 244.83 109.32C245.24 109.691 245.549 110.115 245.758 110.59C245.973 111.065 246.08 111.602 246.08 112.201C246.08 112.839 245.956 113.406 245.709 113.9C245.462 114.395 245.107 114.815 244.645 115.16C244.182 115.499 243.629 115.756 242.984 115.932C242.34 116.107 241.62 116.195 240.826 116.195C240.097 116.195 239.378 116.104 238.668 115.922C237.965 115.733 237.327 115.447 236.754 115.062C236.181 114.672 235.722 114.174 235.377 113.568C235.038 112.956 234.869 112.23 234.869 111.391H238.307C238.307 111.807 238.362 112.159 238.473 112.445C238.583 112.732 238.746 112.963 238.961 113.139C239.176 113.308 239.439 113.432 239.752 113.51C240.064 113.581 240.423 113.617 240.826 113.617C241.262 113.617 241.614 113.555 241.881 113.432C242.148 113.301 242.343 113.132 242.467 112.924C242.59 112.709 242.652 112.475 242.652 112.221ZM261.732 101.781V116H258.305V101.781H261.732ZM266.01 101.781V104.428H254.125V101.781H266.01ZM279.299 104.77L275.832 116H272.15L277.375 101.781H279.709L279.299 104.77ZM282.17 116L278.693 104.77L278.244 101.781H280.607L285.861 116H282.17ZM282.033 110.697V113.344H274.738V110.697H282.033ZM301.445 101.781H304.873V111.068C304.873 112.175 304.642 113.113 304.18 113.881C303.717 114.643 303.07 115.219 302.236 115.609C301.403 116 300.423 116.195 299.297 116.195C298.184 116.195 297.204 116 296.357 115.609C295.518 115.219 294.86 114.643 294.385 113.881C293.916 113.113 293.682 112.175 293.682 111.068V101.781H297.119V111.068C297.119 111.654 297.204 112.133 297.373 112.504C297.542 112.868 297.79 113.135 298.115 113.305C298.441 113.474 298.835 113.559 299.297 113.559C299.766 113.559 300.16 113.474 300.479 113.305C300.798 113.135 301.038 112.868 301.201 112.504C301.364 112.133 301.445 111.654 301.445 111.068V101.781ZM314.031 101.781H319.627C320.721 101.781 321.671 101.944 322.479 102.27C323.286 102.595 323.908 103.077 324.344 103.715C324.786 104.353 325.008 105.141 325.008 106.078C325.008 106.892 324.881 107.572 324.627 108.119C324.373 108.666 324.018 109.118 323.562 109.477C323.113 109.828 322.589 110.118 321.99 110.346L320.867 110.98H316.17L316.15 108.334H319.627C320.063 108.334 320.424 108.256 320.711 108.1C320.997 107.943 321.212 107.722 321.355 107.436C321.505 107.143 321.58 106.794 321.58 106.391C321.58 105.98 321.505 105.629 321.355 105.336C321.206 105.043 320.984 104.818 320.691 104.662C320.405 104.506 320.05 104.428 319.627 104.428H317.459V116H314.031V101.781ZM321.814 116L318.67 109.711L322.303 109.691L325.486 115.854V116H321.814ZM340.104 104.77L336.637 116H332.955L338.18 101.781H340.514L340.104 104.77ZM342.975 116L339.498 104.77L339.049 101.781H341.412L346.666 116H342.975ZM342.838 110.697V113.344H335.543V110.697H342.838ZM366.586 101.781V116H363.168L358.139 107.152V116H354.711V101.781H358.139L363.168 110.629V101.781H366.586ZM382.346 101.781V116H378.918V101.781H382.346ZM386.623 101.781V104.428H374.738V101.781H386.623Z" fill="black"/>
</svg>
